<svg width="39" height="39" fill="none" xmlns="http://www.w3.org/2000/svg"><path d="M19.5 39a19.13 19.13 0 01-7.58-1.542c-2.411-1.029-4.487-2.413-6.226-4.152-1.74-1.74-3.123-3.815-4.152-6.227A19.13 19.13 0 010 19.5c0-2.64.514-5.167 1.542-7.58 1.029-2.41 2.413-4.486 4.152-6.225 1.74-1.74 3.815-3.123 6.227-4.152A19.13 19.13 0 0119.5 0c2.64 0 5.167.514 7.58 1.542 2.411 1.029 4.487 2.413 6.226 4.152 1.74 1.74 3.123 3.815 4.152 6.227A19.13 19.13 0 0139 19.5c0 2.64-.514 5.167-1.542 7.58-1.029 2.411-2.413 4.487-4.152 6.226-1.74 1.74-3.815 3.123-6.227 4.152A19.13 19.13 0 0119.5 39zm9.75-26.813c0-.66-.235-1.23-.705-1.713a2.324 2.324 0 00-1.733-.724H12.188c-.66 0-1.23.241-1.713.724-.483.482-.724 1.053-.724 1.713v2.438h4.342c1.473-1.625 3.275-2.438 5.408-2.438 2.133 0 3.936.813 5.408 2.438h4.342v-2.438zM14.625 19.5c0 1.346.476 2.495 1.428 3.447s2.101 1.428 3.447 1.428 2.495-.476 3.447-1.428 1.428-2.101 1.428-3.447-.476-2.495-1.428-3.447-2.101-1.428-3.447-1.428-2.495.476-3.447 1.428-1.428 2.101-1.428 3.447zm14.625-2.438h-2.895c.305.838.457 1.65.457 2.438 0 2.031-.71 3.758-2.132 5.18-1.422 1.422-3.149 2.133-5.18 2.133-2.031 0-3.758-.711-5.18-2.133-1.422-1.422-2.133-3.149-2.133-5.18 0-.787.153-1.6.458-2.438H9.75v9.75c0 .686.235 1.264.705 1.733.47.47 1.047.705 1.732.705h14.626c.685 0 1.263-.235 1.732-.705.47-.47.705-1.047.705-1.733v-9.75z" fill="#fff"/></svg>