<svg width="39" height="39" fill="none" xmlns="http://www.w3.org/2000/svg"><path d="M19.5.78C9.161.78.78 9.16.78 19.5c0 10.339 8.381 18.72 18.72 18.72 10.339 0 18.72-8.381 18.72-18.72C38.22 9.16 29.839.78 19.5.78zm7.2 21.12s1.655 1.634 2.063 2.393a.16.16 0 01.02.039c.167.279.206.495.124.657-.137.27-.605.402-.765.413h-2.925c-.202 0-.627-.052-1.142-.407-.396-.277-.786-.731-1.166-1.174-.568-.66-1.06-1.229-1.554-1.229a.597.597 0 00-.186.03c-.374.12-.854.655-.854 2.078 0 .445-.35.7-.599.7h-1.34c-.456 0-2.833-.16-4.939-2.38-2.577-2.72-4.898-8.177-4.917-8.227-.147-.353.156-.543.485-.543h2.954c.394 0 .523.24.613.453.105.247.491 1.232 1.125 2.34 1.027 1.806 1.657 2.539 2.162 2.539a.585.585 0 00.271-.07c.66-.367.537-2.717.507-3.204 0-.092-.002-1.051-.339-1.512-.242-.333-.653-.46-.903-.507.101-.139.234-.252.388-.33.453-.225 1.268-.258 2.077-.258h.45c.878.011 1.104.068 1.422.148.644.154.657.57.6 1.99-.017.404-.034.86-.034 1.399 0 .117-.006.242-.006.374-.02.724-.043 1.545.468 1.882a.421.421 0 00.222.064c.178 0 .712 0 2.159-2.482.446-.8.834-1.63 1.16-2.484.03-.051.115-.207.216-.268a.519.519 0 01.242-.056h3.473c.378 0 .638.056.687.203.085.232-.016.94-1.601 3.087l-.708.934c-1.437 1.883-1.437 1.979.09 3.408z" fill="#fff"/></svg>