<svg width="39" height="39" fill="none" xmlns="http://www.w3.org/2000/svg"><path d="M19.5 0C8.748 0 0 8.748 0 19.5S8.748 39 19.5 39 39 30.252 39 19.5 30.252 0 19.5 0zm0 6.783a5.935 5.935 0 110 11.87 5.935 5.935 0 010-11.87zm0 3.39a2.543 2.543 0 100 5.088 2.543 2.543 0 000-5.087zm-5.176 10.602c.283-.008.576.055.856.202a9.238 9.238 0 004.32 1.067c1.56 0 3.03-.387 4.32-1.067 1.119-.588 2.463.168 2.463 1.431a1.82 1.82 0 01-.98 1.616c-.71.365-1.466.649-2.243.877l2.726 2.726a1.697 1.697 0 11-2.398 2.398L19.5 26.137l-3.888 3.888a1.696 1.696 0 11-2.398-2.398l2.725-2.726a12.73 12.73 0 01-2.242-.876 1.823 1.823 0 01-.98-1.617c0-.948.757-1.61 1.607-1.633z" fill="#fff"/></svg>