<svg width="135" height="135" fill="none" xmlns="http://www.w3.org/2000/svg"><circle cx="68" cy="68" r="67" fill="#489E7F"/><path d="M117 66.718c0 27.405-17.15 49.359-44.353 49.359-13.685 0-27.367-5.537-37.625-14.503C24.767 92.609 18 80.278 18 66.718 18 39.37 36.386 18 63.64 18 91.095 18 117 39.568 117 66.718z" stroke="#fff" stroke-opacity=".7" stroke-width="2"/><path d="M90.606 26.333c22.624 13.072 32.584 37.662 19.663 60.058-6.501 11.27-17.572 19.9-29.847 24.073-12.272 4.172-25.663 3.865-36.852-2.6C20.995 94.82 12.102 69.49 25.048 47.051c13.046-22.614 43.155-33.663 65.558-20.718z" stroke="#fff" stroke-opacity=".7" stroke-width="2"/><path d="M91.306 25.315c23.32 13.475 33.593 38.828 20.27 61.92-6.702 11.619-18.114 20.514-30.768 24.816-12.65 4.3-26.457 3.984-37.994-2.682-23.27-13.445-32.442-39.56-19.094-62.697 13.448-23.31 44.486-34.703 67.586-21.357z" stroke="#fff" stroke-opacity=".7" stroke-width="2"/><path d="M67.85 121.084c-29.885 0-53.85-18.72-53.85-48.433 0-14.939 6.039-29.872 15.818-41.067C39.595 20.391 53.05 13 67.85 13 97.677 13 121 33.072 121 62.835c0 29.964-23.521 58.249-53.15 58.249z" stroke="#fff" stroke-opacity=".7" stroke-width="2"/><path d="M37.916 66.484l1.565-13.078H54.44v4.606H44.297l-.58 5.08c.422-.246.973-.463 1.652-.65a7.707 7.707 0 012.022-.282c2.543 0 4.494.756 5.853 2.268 1.371 1.5 2.057 3.61 2.057 6.328 0 1.64-.37 3.129-1.108 4.465a7.51 7.51 0 01-3.076 3.058c-1.324.715-2.889 1.073-4.693 1.073-1.606 0-3.111-.329-4.518-.985-1.406-.668-2.508-1.576-3.304-2.724-.797-1.16-1.19-2.467-1.178-3.92h5.941c.059.937.358 1.681.897 2.232.539.55 1.248.826 2.127.826 1.992 0 2.988-1.476 2.988-4.43 0-2.73-1.219-4.095-3.656-4.095-1.383 0-2.414.445-3.094 1.336l-4.711-1.108zm38.268 2.057c0 3.457-.78 6.123-2.338 7.998-1.547 1.875-3.733 2.813-6.557 2.813-2.848 0-5.05-.944-6.61-2.83-1.558-1.887-2.337-4.547-2.337-7.981v-4.676c0-3.457.773-6.123 2.32-7.998 1.559-1.875 3.756-2.812 6.592-2.812s5.033.943 6.592 2.83c1.558 1.887 2.338 4.553 2.338 7.998v4.658zm-5.924-5.432c0-1.84-.24-3.21-.72-4.113-.481-.914-1.243-1.371-2.286-1.371-1.02 0-1.764.422-2.233 1.266-.457.843-.703 2.12-.738 3.832v6.539c0 1.91.24 3.31.72 4.2.481.88 1.243 1.32 2.286 1.32 1.008 0 1.752-.428 2.233-1.284.48-.867.726-2.22.738-4.06v-6.329zm26.771 5.432c0 3.457-.779 6.123-2.338 7.998-1.546 1.875-3.732 2.813-6.556 2.813-2.848 0-5.051-.944-6.61-2.83-1.558-1.887-2.338-4.547-2.338-7.981v-4.676c0-3.457.774-6.123 2.32-7.998 1.56-1.875 3.757-2.812 6.593-2.812 2.835 0 5.033.943 6.591 2.83 1.559 1.887 2.338 4.553 2.338 7.998v4.658zm-5.924-5.432c0-1.84-.24-3.21-.72-4.113-.48-.914-1.243-1.371-2.285-1.371-1.02 0-1.764.422-2.233 1.266-.457.843-.703 2.12-.738 3.832v6.539c0 1.91.24 3.31.72 4.2.481.88 1.243 1.32 2.286 1.32 1.007 0 1.752-.428 2.232-1.284.48-.867.727-2.22.738-4.06v-6.329z" fill="#fff"/></svg>