<svg width="135" height="135" fill="none" xmlns="http://www.w3.org/2000/svg"><circle cx="68" cy="68" r="67" fill="#489E7F"/><path d="M117 66.718c0 27.405-17.15 49.359-44.353 49.359-13.685 0-27.367-5.537-37.625-14.503C24.767 92.609 18 80.278 18 66.718 18 39.37 36.386 18 63.64 18 91.095 18 117 39.568 117 66.718z" stroke="#fff" stroke-opacity=".7" stroke-width="2"/><path d="M90.606 26.333c22.624 13.072 32.584 37.662 19.663 60.058-6.501 11.27-17.572 19.9-29.847 24.073-12.272 4.172-25.663 3.865-36.852-2.6C20.995 94.82 12.102 69.49 25.048 47.051c13.046-22.614 43.155-33.663 65.558-20.718z" stroke="#fff" stroke-opacity=".7" stroke-width="2"/><path d="M91.306 25.315c23.32 13.475 33.593 38.828 20.27 61.92-6.702 11.619-18.114 20.514-30.768 24.816-12.65 4.3-26.457 3.984-37.994-2.682-23.27-13.445-32.442-39.56-19.094-62.697 13.448-23.31 44.486-34.703 67.586-21.357z" stroke="#fff" stroke-opacity=".7" stroke-width="2"/><path d="M67.85 121.084c-29.885 0-53.85-18.72-53.85-48.433 0-14.939 6.039-29.872 15.818-41.067C39.595 20.391 53.05 13 67.85 13 97.677 13 121 33.072 121 62.835c0 29.964-23.521 58.249-53.15 58.249z" stroke="#fff" stroke-opacity=".7" stroke-width="2"/><path d="M57.86 87h-9.243V57.578L39.54 60.23v-7l17.473-6.042h.847V87zm12.55-19.469l2.434-20.344h23.27v7.165H80.335l-.902 7.902c.656-.383 1.513-.72 2.57-1.012a11.987 11.987 0 013.144-.437c3.956 0 6.991 1.175 9.106 3.527 2.133 2.333 3.2 5.615 3.2 9.844 0 2.552-.575 4.867-1.723 6.945a11.681 11.681 0 01-4.786 4.758c-2.06 1.112-4.493 1.668-7.3 1.668-2.498 0-4.84-.51-7.028-1.531-2.187-1.04-3.9-2.452-5.14-4.239-1.24-1.804-1.85-3.837-1.833-6.097h9.243c.09 1.458.556 2.616 1.394 3.472.839.857 1.942 1.285 3.309 1.285 3.099 0 4.648-2.296 4.648-6.89 0-4.248-1.896-6.371-5.687-6.371-2.151 0-3.755.692-4.813 2.078L70.41 67.53z" fill="#fff"/></svg>