<svg width="135" height="135" fill="none" xmlns="http://www.w3.org/2000/svg"><circle cx="68" cy="68" r="67" fill="#fff"/><path d="M117 66.718c0 27.405-17.15 49.359-44.353 49.359-13.685 0-27.367-5.537-37.625-14.503C24.767 92.609 18 80.278 18 66.718 18 39.37 36.386 18 63.64 18 91.095 18 117 39.568 117 66.718z" stroke="url(#paint0_linear)" stroke-width="2"/><path d="M90.606 26.333c22.624 13.072 32.584 37.662 19.663 60.058-6.501 11.27-17.572 19.9-29.847 24.073-12.272 4.172-25.663 3.865-36.852-2.6C20.995 94.82 12.102 69.49 25.048 47.051c13.046-22.614 43.155-33.663 65.558-20.718z" stroke="url(#paint1_linear)" stroke-width="2"/><path d="M91.306 25.315c23.32 13.475 33.593 38.828 20.27 61.92-6.702 11.619-18.114 20.514-30.768 24.816-12.65 4.3-26.457 3.984-37.994-2.682-23.27-13.445-32.442-39.56-19.094-62.697 13.448-23.31 44.486-34.703 67.586-21.357z" stroke="url(#paint2_linear)" stroke-width="2"/><path d="M67.85 121.084c-29.885 0-53.85-18.72-53.85-48.433 0-14.939 6.039-29.872 15.818-41.067C39.595 20.391 53.05 13 67.85 13 97.677 13 121 33.072 121 62.835c0 29.964-23.521 58.249-53.15 58.249z" stroke="url(#paint3_linear)" stroke-width="2"/><path d="M65.215 86H37.434v-6.016L50.23 66.531c3.153-3.59 4.73-6.444 4.73-8.558 0-1.714-.374-3.017-1.121-3.91-.748-.894-1.832-1.34-3.254-1.34-1.404 0-2.543.601-3.418 1.804-.875 1.185-1.313 2.67-1.313 4.457h-9.242c0-2.442.611-4.694 1.832-6.754 1.222-2.078 2.917-3.7 5.086-4.867 2.17-1.166 4.594-1.75 7.274-1.75 4.302 0 7.61.994 9.925 2.98 2.334 1.988 3.5 4.84 3.5 8.56a12.52 12.52 0 01-.875 4.593c-.583 1.477-1.494 3.035-2.734 4.676-1.221 1.622-3.2 3.8-5.934 6.535l-5.14 5.934h15.668V86zm28.984-15.559h4.047v7.11H94.2V86h-9.215v-8.45H69.59l-.547-5.632 15.941-25.649v-.081H94.2V70.44zm-16.379 0h7.164v-12.25l-.574.93-6.59 11.32z" fill="#489E7F"/><defs><linearGradient id="paint0_linear" x1="67.5" y1="16.358" x2="67.5" y2="117.077" gradientUnits="userSpaceOnUse"><stop stop-color="#C4C4C4"/><stop offset="1" stop-color="#F0F0F0" stop-opacity=".2"/></linearGradient><linearGradient id="paint1_linear" x1="25.488" y1="43.062" x2="108.719" y2="91.079" gradientUnits="userSpaceOnUse"><stop stop-color="#C4C4C4"/><stop offset="1" stop-color="#F0F0F0" stop-opacity=".2"/></linearGradient><linearGradient id="paint2_linear" x1="24.2" y1="42.578" x2="109.953" y2="92.05" gradientUnits="userSpaceOnUse"><stop stop-color="#C4C4C4"/><stop offset="1" stop-color="#F0F0F0" stop-opacity=".2"/></linearGradient><linearGradient id="paint3_linear" x1="122.699" y1="67.042" x2="13" y2="67.042" gradientUnits="userSpaceOnUse"><stop stop-color="#C4C4C4"/><stop offset="1" stop-color="#F0F0F0" stop-opacity=".2"/></linearGradient></defs></svg>