<svg width="135" height="135" fill="none" xmlns="http://www.w3.org/2000/svg"><circle cx="68" cy="68" r="67" fill="#fff"/><path d="M117 66.718c0 27.405-17.15 49.359-44.353 49.359-13.685 0-27.367-5.537-37.625-14.503C24.767 92.609 18 80.278 18 66.718 18 39.37 36.386 18 63.64 18 91.095 18 117 39.568 117 66.718z" stroke="url(#paint0_linear)" stroke-width="2"/><path d="M90.606 26.333c22.624 13.072 32.584 37.662 19.663 60.058-6.501 11.27-17.572 19.9-29.847 24.073-12.272 4.172-25.663 3.865-36.852-2.6C20.995 94.82 12.102 69.49 25.048 47.051c13.046-22.614 43.155-33.663 65.558-20.718z" stroke="url(#paint1_linear)" stroke-width="2"/><path d="M91.306 25.315c23.32 13.475 33.593 38.828 20.27 61.92-6.702 11.619-18.114 20.514-30.768 24.816-12.65 4.3-26.457 3.984-37.994-2.682-23.27-13.445-32.442-39.56-19.094-62.697 13.448-23.31 44.486-34.703 67.586-21.357z" stroke="url(#paint2_linear)" stroke-width="2"/><path d="M67.85 121.084c-29.885 0-53.85-18.72-53.85-48.433 0-14.939 6.039-29.872 15.818-41.067C39.595 20.391 53.05 13 67.85 13 97.677 13 121 33.072 121 62.835c0 29.964-23.521 58.249-53.15 58.249z" stroke="url(#paint3_linear)" stroke-width="2"/><path d="M57.86 87h-9.243V57.578L39.54 60.23v-7l17.473-6.042h.847V87zm39.648-16.27c0 5.378-1.212 9.525-3.637 12.442-2.406 2.916-5.806 4.375-10.2 4.375-4.429 0-7.856-1.468-10.28-4.403-2.425-2.934-3.637-7.072-3.637-12.413v-7.274c0-5.378 1.203-9.525 3.61-12.441 2.424-2.917 5.842-4.375 10.253-4.375 4.412 0 7.83 1.467 10.254 4.402 2.425 2.935 3.637 7.082 3.637 12.441v7.247zm-9.215-8.449c0-2.862-.374-4.995-1.121-6.398-.748-1.422-1.932-2.133-3.555-2.133-1.586 0-2.743.656-3.473 1.969-.71 1.312-1.093 3.3-1.148 5.96v10.173c0 2.97.374 5.15 1.121 6.535.748 1.367 1.932 2.05 3.555 2.05 1.568 0 2.725-.665 3.472-1.996.748-1.349 1.13-3.454 1.149-6.316v-9.844z" fill="#489E7F"/><defs><linearGradient id="paint0_linear" x1="67.5" y1="16.358" x2="67.5" y2="117.077" gradientUnits="userSpaceOnUse"><stop stop-color="#C4C4C4"/><stop offset="1" stop-color="#F0F0F0" stop-opacity=".2"/></linearGradient><linearGradient id="paint1_linear" x1="25.488" y1="43.062" x2="108.719" y2="91.079" gradientUnits="userSpaceOnUse"><stop stop-color="#C4C4C4"/><stop offset="1" stop-color="#F0F0F0" stop-opacity=".2"/></linearGradient><linearGradient id="paint2_linear" x1="24.2" y1="42.578" x2="109.953" y2="92.05" gradientUnits="userSpaceOnUse"><stop stop-color="#C4C4C4"/><stop offset="1" stop-color="#F0F0F0" stop-opacity=".2"/></linearGradient><linearGradient id="paint3_linear" x1="122.699" y1="67.042" x2="13" y2="67.042" gradientUnits="userSpaceOnUse"><stop stop-color="#C4C4C4"/><stop offset="1" stop-color="#F0F0F0" stop-opacity=".2"/></linearGradient></defs></svg>