<svg width="10" height="11" fill="none" xmlns="http://www.w3.org/2000/svg"><path d="M.71 10.999a.669.669 0 01-.454-.18.774.774 0 01-.174-.239.847.847 0 01-.05-.598.813.813 0 01.132-.27l3.173-4.201L.277 1.3a.815.815 0 01-.129-.272A.864.864 0 01.206.43.77.77 0 01.384.194.694.694 0 01.636.036.644.644 0 011.2.1c.085.054.16.126.218.212l3.42 4.704c.105.14.162.316.162.498a.837.837 0 01-.161.498l-3.542 4.703a.72.72 0 01-.263.22.649.649 0 01-.324.063zm5 0a.669.669 0 01-.454-.18.774.774 0 01-.174-.239.847.847 0 01-.05-.598.813.813 0 01.132-.27l3.173-4.201-3.06-4.21a.815.815 0 01-.129-.272.864.864 0 01.058-.598.77.77 0 01.178-.236.694.694 0 01.252-.158.644.644 0 01.564.064c.085.054.16.126.218.212l3.42 4.704c.105.14.162.316.162.498a.837.837 0 01-.161.498l-3.542 4.703a.72.72 0 01-.263.22.649.649 0 01-.324.063z" fill="#707070"/></svg>