<svg width="17" height="16" fill="none" xmlns="http://www.w3.org/2000/svg"><path d="M13.473 7.946c1.918 0 3.473-.883 3.473-1.973S15.391 4 13.473 4 10 4.883 10 5.973s1.555 1.973 3.473 1.973z" fill="#B9B9B9"/><path fill-rule="evenodd" clip-rule="evenodd" d="M13.525 9.081c-2.484 0-3.473-1.041-3.473-1.644v2.583c0 1.09 1.555 1.972 3.473 1.972 1.92 0 3.475-.882 3.475-1.972V7.499c0 .604-.99 1.582-3.475 1.582z" fill="#B9B9B9"/><path fill-rule="evenodd" clip-rule="evenodd" d="M13.525 13.072c-2.222 0-3.473-1.001-3.473-1.604v2.559c0 1.09 1.555 1.973 3.473 1.973 1.92 0 3.475-.883 3.475-1.973v-2.59c0 .603-1.252 1.635-3.475 1.635z" fill="#B9B9B9"/><path d="M4.937 3.946c2.174 0 3.937-.883 3.937-1.973S7.111 0 4.937 0 1 .883 1 1.973s1.763 1.973 3.937 1.973z" fill="#B9B9B9"/><path fill-rule="evenodd" clip-rule="evenodd" d="M5.062 5.081c-2.815 0-3.937-1.041-3.937-1.644V6.02c0 1.09 1.763 1.972 3.937 1.972C7.238 7.992 9 7.11 9 6.02V3.499c0 .604-1.123 1.582-3.938 1.582z" fill="#B9B9B9"/><path fill-rule="evenodd" clip-rule="evenodd" d="M5.062 9.072c-2.519 0-3.937-1.001-3.937-1.604v2.559c0 1.09 1.763 1.973 3.937 1.973C7.238 12 9 11.117 9 10.027v-2.59c0 .603-1.42 1.635-3.938 1.635z" fill="#B9B9B9"/><path fill-rule="evenodd" clip-rule="evenodd" d="M5.062 13.072c-2.519 0-3.937-1.001-3.937-1.604v2.559c0 1.09 1.763 1.973 3.937 1.973C7.238 16 9 15.117 9 14.027v-2.59c0 .603-1.42 1.635-3.938 1.635z" fill="#B9B9B9"/></svg>