<svg width="57" height="50" fill="none" xmlns="http://www.w3.org/2000/svg"><path d="M45 39.474c1.592 0 3.118.554 4.243 1.541 1.125.987 1.758 2.326 1.758 3.722s-.633 2.734-1.758 3.721C48.118 49.447 46.592 50 45 50c-1.59 0-3.117-.554-4.242-1.541C39.632 47.47 39 46.133 39 44.736s.633-2.735 1.758-3.722c1.125-.987 2.651-1.541 4.242-1.541zm0 2.631c-.795 0-1.558.278-2.12.771-.564.494-.88 1.163-.88 1.86 0 .699.316 1.368.88 1.862.562.493 1.325.77 2.12.77.796 0 1.56-.277 2.122-.77.562-.494.879-1.163.879-1.861s-.317-1.367-.88-1.861c-.562-.493-1.325-.77-2.12-.77zm-27-2.631c1.591 0 3.118.554 4.243 1.541 1.125.987 1.757 2.326 1.757 3.722s-.632 2.734-1.757 3.721C21.118 49.447 19.592 50 18 50c-1.591 0-3.117-.554-4.242-1.541C12.632 47.47 12 46.133 12 44.736s.632-2.735 1.758-3.722c1.125-.987 2.65-1.541 4.242-1.541zm0 2.631c-.796 0-1.558.278-2.121.771-.563.494-.879 1.163-.879 1.86 0 .699.316 1.368.879 1.862.563.493 1.325.77 2.121.77s1.559-.277 2.122-.77c.562-.494.878-1.163.878-1.861s-.316-1.367-.878-1.861c-.563-.493-1.326-.77-2.122-.77zm33-34.21H9.82l7.64 15.79H42c.467 0 .927-.096 1.344-.28.417-.183.779-.45 1.056-.779l9-10.526h.004c.332-.391.534-.856.583-1.342a2.357 2.357 0 00-.306-1.41 2.797 2.797 0 00-1.105-1.06A3.32 3.32 0 0051 7.894zm-9 18.42H17.598L15.3 30.422 15 31.58c0 .698.316 1.367.879 1.86.563.494 1.325.772 2.121.772h33v2.631H18a6.663 6.663 0 01-2.979-.693 5.705 5.705 0 01-2.193-1.898 4.787 4.787 0 01-.83-2.603 4.761 4.761 0 01.752-2.622l2.16-3.879L4.014 2.632H0V0h6l2.547 5.263H51c1.134 0 2.245.282 3.203.813.959.53 1.726 1.289 2.214 2.187.487.898.675 1.898.54 2.886-.133.987-.583 1.92-1.297 2.693l-8.742 10.226a5.826 5.826 0 01-2.145 1.653 6.68 6.68 0 01-2.773.595z" fill="#FF8D23"/></svg>