<svg width="163" height="75" fill="none" xmlns="http://www.w3.org/2000/svg"><g clip-path="url(#clip0)"><path fill-rule="evenodd" clip-rule="evenodd" d="M112.855 11H161v55h-49.05a41.562 41.562 0 01-2.003 2H163V9h-52.017c.646.646 1.27 1.313 1.872 2zM53.017 9H0v59h54.053a41.257 41.257 0 01-2.003-2H2V11h49.145a41.284 41.284 0 011.872-2z" fill="#FF8D23"/><path d="M81.599 14.42c2.748 2.666 5.945 4.711 9.596 5.66 2.657.69 5.402.94 8.14.948.14.333.301.643.479.933h.778a6.454 6.454 0 01-.552-.936 55.414 55.414 0 002.144-.069 64.002 64.002 0 0010.133-1.356.249.249 0 00.169-.343c-.05-.099-.1-.198-.146-.3 0-.015-.011-.027-.022-.038a.098.098 0 01-.01-.011l-.003-.004-.004-.005a.197.197 0 00-.095-.072.203.203 0 00-.12-.004 62.592 62.592 0 01-10.635 1.36c-4.568.175-9.489-.11-13.676-2.22A24.735 24.735 0 0180.9 12.69a22.115 22.115 0 003.455-11.499.198.198 0 00-.204-.19h-.307a.243.243 0 00-.257.21 21.242 21.242 0 01-3.232 10.878 25.797 25.797 0 01-5.412-9.656c-.034-.114-.142-.233-.272-.194l-.296.091a.25.25 0 00-.184.286c1.286 4.468 4.184 8.68 7.408 11.804z" fill="url(#paint0_linear)"/><path d="M112.702 21.96h-4.795a6.412 6.412 0 01-.258-.776s2.188-1.05 3.904-.186c.461.232.841.58 1.149.963z" fill="url(#paint1_linear)"/><path d="M95.167 54.208H113v.115a.232.232 0 01-.08.163.242.242 0 01-.173.058c-3.136-.201-6.351-.338-9.557-.258.528.252 2.77 1.428 3.412 3.533.729 2.392-.887 5.074-.887 5.074s-2.794-1.196-3.52-3.584c-.668-2.191.629-4.625.851-5.019-1.482.04-2.963.128-4.432.277a18.164 18.164 0 008.091 10.383.26.26 0 01.058.339c-.054.095-.104.19-.154.286a.171.171 0 01-.046.063.188.188 0 01-.148.044.179.179 0 01-.074-.027l-.054-.023c-4.149-2.518-6.967-6.201-8.444-10.982-6.088.713-11.96 2.541-17 6.552a.27.27 0 01-.073.038.193.193 0 01-.253-.069l-.223-.255a.254.254 0 01.027-.343c4.451-3.553 9.534-5.44 14.846-6.365z" fill="url(#paint2_linear)"/><path d="M91.31 54.208h.077l-.039.035-.037-.035z" fill="url(#paint3_linear)"/><path d="M80.07 54.208h3.328c-.037.89-.266 2.863-1.5 4.053-1.441 1.39-3.776 1.246-4.3 1.193 5.07 3.4 9.523 8.812 11.26 14.92a.246.246 0 01-.189.285l-.295.091c-.13.039-.234-.08-.27-.198a25.492 25.492 0 00-5.442-9.629 21.313 21.313 0 00-3.216 10.856.24.24 0 01-.25.22h-.31a.197.197 0 01-.184-.115.193.193 0 01-.016-.075.15.15 0 010-.072A22.062 22.062 0 0182.14 64.31a26.349 26.349 0 00-6.26-4.982.256.256 0 01-.054-.34l.128-.164.037-.046.035-.044a.232.232 0 01.322-.061l.211.118c.313.19.623.387.931.591-.007-.425.013-3.013 1.51-4.454.323-.31.69-.544 1.07-.72z" fill="url(#paint4_linear)"/><path d="M65.138 54.208h1.073c-.05.172-.084.267-.084.267s-.399-.073-.99-.267z" fill="url(#paint5_linear)"/><path d="M49.066 54.208h13.18c3.502.477 6.987 1.212 10.233 2.644a.267.267 0 01.15.22.254.254 0 01.112.218.25.25 0 01-.127.21c-4.36 2.83-8.322 6.425-10.805 11.21a.226.226 0 01-.323.057l-.272-.153a.259.259 0 01-.054-.339c2.395-4.62 6.149-8.151 10.31-10.97-3.366-1.363-6.932-1.954-10.506-2.418a69.54 69.54 0 00-3.744-.406c.025.26.235 2.85-1.153 4.382-1.463 1.615-4.111 1.444-4.111 1.444s-.3-2.788 1.148-4.403c1.13-1.26 2.998-1.433 3.767-1.448-2.519-.171-5.037-.114-7.525.476a.237.237 0 01-.237-.108.231.231 0 01-.032-.086c-.022-.087-.041-.175-.06-.26l-.013-.056a.246.246 0 01.062-.214z" fill="url(#paint6_linear)"/><path d="M83.012 21.96h-6.657a6.951 6.951 0 01-.502-.783s2.123-1.806 4.241-1.371c1.335.273 2.35 1.376 2.918 2.155z" fill="url(#paint7_linear)"/><path d="M71.57 21.96h-3.85c5.197-.899 10.171-2.734 14.524-6.21a.244.244 0 01.326.03l.207.281a.266.266 0 01-.026.347c-3.417 2.726-7.204 4.47-11.18 5.553z" fill="url(#paint8_linear)"/><path d="M65.13 21.96h-.806a18.152 18.152 0 00-7.954-9.944.258.258 0 01-.054-.339l.15-.285a.183.183 0 01.194-.111.183.183 0 01.075.027.234.234 0 01.053.026c4.049 2.455 6.836 6.017 8.342 10.627z" fill="url(#paint9_linear)"/><path d="M86.094 1.29s-.994 3.116.303 5.333 4.402 2.681 4.402 2.681 1.006-3.112-.303-5.332C89.187 1.75 86.094 1.29 86.094 1.29z" fill="url(#paint10_linear)"/><path d="M78.935 1.675s-1.704 2.32-1.22 4.605c.499 2.274 2.97 3.622 2.97 3.622s1.705-2.338 1.221-4.609c-.484-2.27-2.97-3.618-2.97-3.618z" fill="url(#paint11_linear)"/><path d="M103.439 17.532c-1.869 2.514-5.704 2.643-5.704 2.643s-.798-3.95 1.071-6.475c1.869-2.525 5.704-2.644 5.704-2.644s.798 3.966-1.071 6.476z" fill="url(#paint12_linear)"/><path d="M94.807 7.023c2.08-1.074 4.755.182 4.755.182s-.698 2.994-2.779 4.069c-2.08 1.074-4.752-.187-4.752-.187s.695-2.994 2.776-4.064z" fill="url(#paint13_linear)"/><path d="M109.016 54.54s-1.186 1.604-.864 3.173c.303 1.554 2.031 2.514 2.031 2.514s1.186-1.604.863-3.173c-.322-1.57-2.03-2.514-2.03-2.514z" fill="url(#paint14_linear)"/><path d="M86.209 60.752c.668-2.22 3.25-3.336 3.25-3.336s1.51 2.48.841 4.7c-.668 2.22-3.254 3.34-3.254 3.34s-1.505-2.483-.837-4.704z" fill="url(#paint15_linear)"/><path d="M99.048 63.415c2.126-.648 4.445 1.002 4.445 1.002s-1.129 2.693-3.255 3.34c-2.127.648-4.441-1.002-4.441-1.002s1.128-2.693 3.25-3.34z" fill="url(#paint16_linear)"/><path d="M96.741 71.959s-1.094-3.684-3.761-4.827c-2.672-1.157-5.904.64-5.904.64s1.098 3.684 3.766 4.826c2.667 1.143 5.899-.64 5.899-.64z" fill="url(#paint17_linear)"/><path d="M76.06 62.752c2.184-.38 4.291 1.57 4.291 1.57s-1.431 2.529-3.619 2.894c-2.188.366-4.276-1.569-4.276-1.569s1.42-2.53 3.604-2.895z" fill="url(#paint18_linear)"/><path d="M84.136 75.303s1.7-2.324 1.217-4.61c-.484-2.266-2.967-3.618-2.967-3.618s-1.704 2.34-1.22 4.61c.483 2.27 2.97 3.618 2.97 3.618z" fill="url(#paint19_linear)"/><path d="M95.014 58.715c2.122-.648 4.44 1.001 4.44 1.001s-1.124 2.693-3.25 3.337c-2.127.644-4.445-.998-4.445-.998s1.128-2.697 3.255-3.34z" fill="url(#paint20_linear)"/><path d="M62 57.031c2.688-.084 4.968 2.61 4.968 2.61s-2.115 2.826-4.818 2.91c-2.702.083-4.966-2.614-4.966-2.614s2.115-2.826 4.817-2.906z" fill="url(#paint21_linear)"/><path d="M68.261 69.959c-2.08 1.07-4.756-.183-4.756-.183s.703-2.998 2.783-4.068c2.08-1.07 4.756.187 4.756.187s-.699 2.993-2.783 4.064z" fill="url(#paint22_linear)"/><path d="M57.283 64.752s1.313 1.817 2.849 1.771c1.546-.05 2.748-1.923 2.748-1.923s-1.302-1.821-2.848-1.787c-1.547.034-2.748 1.939-2.748 1.939z" fill="url(#paint23_linear)"/><path d="M76.985 75.691s.99-3.115-.307-5.332c-1.305-2.217-4.39-2.667-4.39-2.667s-.99 3.139.306 5.333c1.298 2.194 4.391 2.666 4.391 2.666z" fill="url(#paint24_linear)"/><path d="M73.608 19.566s2.587-1.12 3.255-3.34c.664-2.218-.841-4.701-.841-4.701s-2.59 1.12-3.255 3.34c-.664 2.221.84 4.7.84 4.7z" fill="url(#paint25_linear)"/><path d="M65.163 11.09c-.057 2.328-2.249 4.156-2.249 4.156s-2.1-1.946-2.042-4.273c.058-2.328 2.242-4.156 2.242-4.156s2.1 1.946 2.05 4.274z" fill="url(#paint26_linear)"/><path d="M60.496 21.333s-.257-3.45-2.384-5.04c-2.122-1.591-5.312-.7-5.312-.7s.254 3.455 2.384 5.04c2.13 1.584 5.312.7 5.312.7z" fill="url(#paint27_linear)"/><path d="M73.896 9.133c-1.03 2.06-3.766 2.666-3.766 2.666s-1.063-2.723-.034-4.784c1.028-2.06 3.765-2.666 3.765-2.666s1.063 2.735.035 4.784z" fill="url(#paint28_linear)"/><path d="M82.716 12.66s2.111 1.95 4.295 1.57c2.184-.366 3.62-2.91 3.62-2.91s-2.112-1.951-4.296-1.57c-2.183.38-3.62 2.91-3.62 2.91z" fill="url(#paint29_linear)"/><path d="M68.058 18.267c-2.127.647-4.43-1.002-4.43-1.002s1.113-2.693 3.24-3.325c2.126-.633 4.437.986 4.437.986s-1.125 2.693-3.248 3.34z" fill="url(#paint30_linear)"/><path d="M91.264 17.94h.073l.307-.039a.25.25 0 00.184-.285A28.891 28.891 0 0193.951 3.19a.246.246 0 00-.139-.313l-.28-.137a.232.232 0 00-.295.145 29.723 29.723 0 00-2.161 14.855.2.2 0 00.188.198z" fill="url(#paint31_linear)"/><path d="M71.811 59.042h-.073l-.307.042a.253.253 0 00-.188.286 28.899 28.899 0 01-2.115 14.424.25.25 0 00.139.313l.28.137a.237.237 0 00.253-.066.23.23 0 00.046-.079 29.773 29.773 0 002.161-14.855.196.196 0 00-.12-.185.2.2 0 00-.076-.017z" fill="url(#paint32_linear)"/><path d="M10.424 48.304l-.912-.624c-.352-.24-.696-.496-1.032-.768a5.82 5.82 0 01-.84-.816c-.256-.272-.408-.544-.456-.816-.032-.176.08-.584.336-1.224s.608-1.424 1.056-2.352c.448-.944.968-1.984 1.56-3.12.592-1.136 1.2-2.288 1.824-3.456a309.09 309.09 0 011.896-3.456c.64-1.12 1.224-2.12 1.752-3 .528-.88.976-1.6 1.344-2.16.368-.576.616-.896.744-.96a.556.556 0 01.48-.024c.176.048.36.136.552.264.208.128.416.28.624.456.208.16.424.312.648.456.72-.304 1.456-.568 2.208-.792a6.652 6.652 0 012.28-.312c.752.016 1.504.208 2.256.576.752.352 1.48.96 2.184 1.824.624.768.904 1.68.84 2.736-.048 1.056-.344 2.136-.888 3.24-.528 1.104-1.24 2.184-2.136 3.24a17.596 17.596 0 01-2.928 2.76c-1.056.768-2.136 1.352-3.24 1.752-1.088.384-2.096.464-3.024.24-.336-.08-.624-.2-.864-.36a3.28 3.28 0 01-.6-.552 8.189 8.189 0 01-.504-.72 10.835 10.835 0 00-.48-.816c-.144.16-.344.44-.6.84-.256.4-.536.872-.84 1.416-.304.544-.624 1.128-.96 1.752-.32.624-.632 1.24-.936 1.848a51.445 51.445 0 00-.816 1.656c-.24.528-.416.952-.528 1.272zm5.544-10.656l.096.336a.463.463 0 00.192.24c.208.144.528.16.96.048.432-.112.92-.304 1.464-.576.544-.288 1.12-.64 1.728-1.056a25.344 25.344 0 001.8-1.368c.592-.48 1.136-.976 1.632-1.488s.904-1 1.224-1.464c.32-.464.528-.88.624-1.248.096-.384.024-.688-.216-.912-.304-.288-.72-.432-1.248-.432-.512 0-1.04.064-1.584.192a7.838 7.838 0 00-1.464.456c-.448.192-.744.336-.888.432-.048.032-.176.176-.384.432-.192.256-.424.584-.696.984-.272.384-.568.824-.888 1.32-.32.48-.632.968-.936 1.464-.304.48-.584.952-.84 1.416a8.9 8.9 0 00-.576 1.224zm26.739-8.256l.768.672c.272.224.512.448.72.672.224.208.392.408.504.6.128.176.168.344.12.504-.08.448-.208.952-.384 1.512.08.256.12.448.12.576-.016.144-.096.32-.24.528-.144.176-.312.36-.504.552-.192.464-.4.944-.624 1.44a43.431 43.431 0 01-1.272 2.616c-.464.88-.936 1.736-1.416 2.568a50.906 50.906 0 01-1.392 2.352c-.464.72-.888 1.36-1.272 1.92-.368.544-.696.984-.984 1.32-.272.352-.464.552-.576.6-.128.032-.288.016-.48-.048a4.283 4.283 0 01-.648-.288 5.462 5.462 0 01-.696-.48 10.676 10.676 0 01-.6-.552 2.685 2.685 0 01-.408-.504c-.08-.16-.088-.288-.024-.384.208-.288.52-.76.936-1.416.352-.528.736-1.128 1.152-1.8-.08.08-.184.16-.312.24-.368.256-.768.56-1.2.912-.416.336-.864.704-1.344 1.104-.464.384-1.032.704-1.704.96-.672.256-1.176.56-1.512.912-.32.368-.568.688-.744.96a4.26 4.26 0 01-.528-.792 4.598 4.598 0 01-.336-.888 4.706 4.706 0 01-.192-.864 4.05 4.05 0 01-.024-.744c.016-.208.24-.584.672-1.128.432-.56 1.12-1.112 2.064-1.656a18.412 18.412 0 002.64-1.896 21.797 21.797 0 012.04-1.608c-.016-.016-.032-.024-.048-.024a42.887 42.887 0 00-.888-.576 8.902 8.902 0 01-.864-.672 3.335 3.335 0 01-.672-.888 3.206 3.206 0 01-.312-1.224c-.016-.48.064-1.04.24-1.68.192-.704.536-1.288 1.032-1.752a4.752 4.752 0 011.8-1.08 7.554 7.554 0 012.304-.384 8.322 8.322 0 012.496.288c.8.208 1.472.48 2.016.816.208-.448.4-.88.576-1.296zm-3.168 6.288c.336-.624.672-1.24 1.008-1.848a5.444 5.444 0 00-1.344-.72 4.46 4.46 0 00-1.368-.288 2.852 2.852 0 00-1.128.12c-.32.112-.544.312-.672.6-.16.32-.192.6-.096.84.096.224.272.432.528.624s.552.384.888.576c.352.192.704.4 1.056.624.208.128.4.264.576.408l.552-.936zm11.285-6.312c.032.032.08.056.144.072.064 0 .128.016.192.048.208.064.432.168.672.312a.378.378 0 01.144.096h.048c.32.144.6.248.84.312.112.016.312 0 .6-.048.304-.048.632-.112.984-.192.368-.08.728-.152 1.08-.216.352-.08.648-.112.888-.096.288.016.544.12.768.312.24.192.448.432.624.72s.328.6.456.936c.144.336.272.664.384.984a5.367 5.367 0 01-.288-.048 1.488 1.488 0 00-.336-.096c-.144-.016-.448.008-.912.072s-1 .16-1.608.288a20.05 20.05 0 00-1.8.48c-.608.176-1.12.36-1.536.552a941.058 941.058 0 01-1.968 3.408c.048.16.112.328.192.504.176.352.448.712.816 1.08.224.208.48.408.768.6.304.176.608.368.912.576.304.192.592.416.864.672.272.24.496.536.672.888.176.352.272.768.288 1.248.032.464-.04 1.016-.216 1.656a3.58 3.58 0 01-1.056 1.728c-.496.48-1.096.84-1.8 1.08-.688.256-1.448.392-2.28.408a9.141 9.141 0 01-2.52-.312c-.784-.192-1.456-.464-2.016-.816-.192.448-.376.88-.552 1.296a34.74 34.74 0 00-.792-.672c-.256-.224-.496-.44-.72-.648a3.026 3.026 0 01-.48-.6c-.128-.192-.176-.36-.144-.504.016-.064.04-.136.072-.216a4.16 4.16 0 01-.216-.624c-.016-.064.056-.28.216-.648.064-.144.136-.312.216-.504v-.096c0-.16.08-.344.24-.552a.611.611 0 01.144-.144c0-.048.008-.088.024-.12.288-.576.624-1.232 1.008-1.968.224-.448.464-.92.72-1.416.176-.32.344-.64.504-.96.464-.88.928-1.728 1.392-2.544.48-.832.952-1.608 1.416-2.328.464-.736.88-1.384 1.248-1.944.384-.56.712-1.008.984-1.344.288-.336.488-.536.6-.6h.072a.28.28 0 00.048-.072zm-3.048 14.808c.464.16.912.256 1.344.288.432.032.808-.008 1.128-.12.336-.128.568-.328.696-.6.144-.32.168-.6.072-.84-.096-.24-.272-.456-.528-.648a6.111 6.111 0 00-.888-.576c-.336-.192-.68-.4-1.032-.624a2.82 2.82 0 01-.432-.264c-.784 1.328-1.248 2.096-1.392 2.304-.08.128-.16.264-.24.408.4.288.824.512 1.272.672zm19.634 3.696a34.74 34.74 0 00-.792-.672 10.1 10.1 0 01-.72-.648 4.01 4.01 0 01-.504-.6c-.112-.192-.152-.36-.12-.504.128-.656.336-1.376.624-2.16.304-.8.648-1.624 1.032-2.472.352-.8.752-1.624 1.2-2.472-4.112 3.536-7.208 6.488-9.288 8.856l-.288.672a34.74 34.74 0 00-.792-.672 14.34 14.34 0 01-.696-.648 2.709 2.709 0 01-.504-.6c-.128-.192-.176-.36-.144-.504.128-.656.344-1.376.648-2.16.288-.8.624-1.624 1.008-2.472.384-.864.808-1.736 1.272-2.616.464-.88.928-1.728 1.392-2.544.48-.832.952-1.608 1.416-2.328.464-.736.88-1.384 1.248-1.944.384-.56.712-1.008.984-1.344.288-.336.488-.536.6-.6.112-.032.264-.016.456.048.208.064.424.168.648.312.24.128.472.288.696.48.24.176.448.352.624.528.176.176.304.344.384.504.096.16.112.288.048.384-.208.288-.528.768-.96 1.44-.432.656-.928 1.424-1.488 2.304-.336.544-.688 1.12-1.056 1.728.752-.832 1.48-1.6 2.184-2.304 1.2-1.184 3.456-2.864 6.768-5.04l.072.072c.224-.24.384-.392.48-.456.112-.032.264-.016.456.048.208.064.424.168.648.312.24.128.472.288.696.48.24.176.448.352.624.528.176.176.304.344.384.504.08.16.088.288.024.384-.192.288-.504.768-.936 1.44-.432.656-.928 1.424-1.488 2.304-.56.88-1.16 1.848-1.8 2.904a194.355 194.355 0 00-1.872 3.24 132.81 132.81 0 00-1.752 3.288 37.486 37.486 0 00-1.416 3zm5.101-2.904c.032-.352.144-.808.336-1.368.192-.56.424-1.184.696-1.872.288-.688.608-1.408.96-2.16.352-.752.72-1.488 1.104-2.208.176-.352.376-.728.6-1.128l.72-1.248.768-1.296c.256-.448.512-.872.768-1.272.56-.96 1.144-1.92 1.752-2.88.608.192 1.12.408 1.536.648.176.096.344.2.504.312.176.112.32.232.432.36a.777.777 0 01.216.36.462.462 0 01-.024.384c-.176.288-.368.616-.576.984l-.6 1.104c-.208.384-.424.776-.648 1.176-.208.4-.416.776-.624 1.128-.48.864-.976 1.744-1.488 2.64l5.424-1.152c.208-.368.456-.816.744-1.344.288-.544.592-1.104.912-1.68.32-.592.64-1.176.96-1.752.336-.592.648-1.12.936-1.584.304-.48.576-.864.816-1.152.256-.288.448-.432.576-.432.304-.016.616.064.936.24.32.176.608.376.864.6.304.256.592.552.864.888a77.83 77.83 0 00-1.032 1.704c-.368.624-.752 1.28-1.152 1.968-.384.688-.768 1.4-1.152 2.136-.384.72-.768 1.432-1.152 2.136a54.79 54.79 0 00-1.2 2.256 59.533 59.533 0 00-.96 2.064 90.055 90.055 0 00-.912 2.088 114.6 114.6 0 00-.96 2.352c-.576-.32-1.016-.688-1.32-1.104-.288-.416-.504-.936-.648-1.56a2.709 2.709 0 01-.048-1.008c.064-.32.152-.632.264-.936.112-.32.232-.64.36-.96.144-.32.256-.656.336-1.008l-5.28 1.152-2.424 4.848-.816-.48a6.705 6.705 0 01-.744-.504 1.707 1.707 0 01-.504-.624 1.27 1.27 0 01-.12-.816zm19.183 2.928a2.765 2.765 0 01-.72-.6 5.958 5.958 0 01-.936-1.464c-.096-.24-.144-.432-.144-.576 0-.16.088-.424.264-.792.192-.368.432-.784.72-1.248.304-.464.64-.936 1.008-1.416.384-.48.776-.904 1.176-1.272-.672-.368-1.152-.888-1.44-1.56-.272-.688-.424-1.496-.456-2.424a7.592 7.592 0 01.096-1.44c.096-.528.216-1.04.36-1.536.144-.512.304-.992.48-1.44.192-.448.384-.848.576-1.2.192-.368.376-.664.552-.888.192-.224.352-.36.48-.408.208-.048.456-.024.744.072.304.08.608.216.912.408.32.176.6.384.84.624.24.224.408.432.504.624.064.16-.016.424-.24.792a16.68 16.68 0 00-.72 1.488c-.272.608-.52 1.36-.744 2.256-.224.88-.312 1.904-.264 3.072a85.809 85.809 0 013.816-4.104 113.98 113.98 0 013.168-3.024 74.236 74.236 0 012.928-2.544c.208.224.432.408.672.552.256.128.488.272.696.432.224.144.408.312.552.504.144.176.232.408.264.696.016.144-.088.336-.312.576-.224.24-.592.6-1.104 1.08-.496.464-1.136 1.072-1.92 1.824s-1.744 1.72-2.88 2.904a195.534 195.534 0 00-3.912 4.224 206.346 206.346 0 00-5.016 5.808zm27.434-.768a34.74 34.74 0 00-.792-.672c-.256-.224-.496-.44-.72-.648a4.314 4.314 0 00-.264-.288 16.59 16.59 0 00-.912.336l-1.464.504c-.496.176-.968.328-1.416.456-.448.128-.856.224-1.224.288-.352.064-.616.064-.792 0-.256-.064-.512-.24-.768-.528a6.13 6.13 0 01-.672-1.008c0-.032-.016-.064-.048-.096-.352.112-.72.24-1.104.384l-1.464.504c-.496.176-.968.328-1.416.456-.448.128-.856.224-1.224.288-.352.064-.616.064-.792 0-.256-.064-.512-.24-.768-.528a5.198 5.198 0 01-.648-1.008 6.57 6.57 0 01-.504-1.2 10.67 10.67 0 01-.288-1.128c-.048-.336.024-.8.216-1.392.192-.608.456-1.288.792-2.04.352-.752.752-1.544 1.2-2.376.464-.848.944-1.688 1.44-2.52a133.577 133.577 0 013.936-6.312c.208-.032.464.008.768.12.32.112.624.272.912.48.288.192.544.416.768.672.24.256.392.496.456.72.048.144-.048.456-.288.936-.24.48-.568 1.072-.984 1.776-.416.688-.888 1.464-1.416 2.328-.528.864-1.056 1.744-1.584 2.64-.512.896-1.008 1.776-1.488 2.64-.464.864-.84 1.656-1.128 2.376l1.44-.432c.496-.144.96-.264 1.392-.36.416-.08.8-.144 1.152-.192.016-.128.056-.288.12-.48a20.62 20.62 0 01.792-2.016c.352-.752.752-1.544 1.2-2.376.464-.848.944-1.688 1.44-2.52a133.577 133.577 0 013.936-6.312c.208-.032.464.008.768.12.32.112.624.272.912.48.288.192.544.416.768.672.24.256.392.496.456.72.048.144-.048.456-.288.936-.24.48-.568 1.072-.984 1.776-.416.688-.888 1.464-1.416 2.328-.528.864-1.056 1.744-1.584 2.64-.512.896-1.008 1.776-1.488 2.64-.464.864-.84 1.656-1.128 2.376l1.44-.432c.496-.144.96-.264 1.392-.36.448-.096.84-.16 1.176-.192.304 0 .552.024.744.072a44.4 44.4 0 01.96-2.304c.384-.864.808-1.736 1.272-2.616.464-.88.928-1.728 1.392-2.544a72.04 72.04 0 012.664-4.272c.384-.56.712-1.008.984-1.344.288-.352.488-.552.6-.6.128-.032.288-.016.48.048s.4.168.624.312c.24.128.472.288.696.48.24.176.448.352.624.528.176.176.304.344.384.504.096.16.112.288.048.384-.208.288-.528.768-.96 1.44-.432.656-.928 1.424-1.488 2.304-.544.88-1.136 1.848-1.776 2.904a194.355 194.355 0 00-1.872 3.24 95.575 95.575 0 00-1.776 3.288 37.486 37.486 0 00-1.416 3zm7.358.6c-.24-.224-.472-.424-.696-.6a6.161 6.161 0 01-.6-.528 2.827 2.827 0 01-.456-.6 2.332 2.332 0 01-.264-.816c-.016-.16.08-.504.288-1.032.192-.528.472-1.168.84-1.92s.784-1.584 1.248-2.496c.48-.912.976-1.824 1.488-2.736.512-.928 1.016-1.824 1.512-2.688.512-.88.984-1.656 1.416-2.328.448-.688.824-1.24 1.128-1.656.32-.432.544-.664.672-.696.16-.032.376.008.648.12.288.112.56.256.816.432.256.16.488.344.696.552.208.192.328.368.36.528.064.192-.008.496-.216.912-.208.4-.48.864-.816 1.392a54.74 54.74 0 01-1.08 1.704 78.58 78.58 0 00-1.104 1.8l1.728-1.248c.688-.496 1.416-1.016 2.184-1.56l2.304-1.632c.768-.544 1.472-1.032 2.112-1.464.64-.448 1.176-.808 1.608-1.08.432-.288.688-.44.768-.456.288-.032.528.04.72.216.208.176.368.4.48.672.128.256.208.544.24.864.032.32.016.624-.048.912-.032.08-.232.28-.6.6-.352.304-.832.68-1.44 1.128-.592.448-1.264.952-2.016 1.512a472.08 472.08 0 01-2.304 1.656c-.784.544-1.56 1.088-2.328 1.632l-2.016 1.416c.32.304.704.664 1.152 1.08.448.416.864.84 1.248 1.272.4.432.744.84 1.032 1.224.304.384.48.688.528.912.112.576.056 1.08-.168 1.512a6.115 6.115 0 01-.912 1.32c-.112-.144-.216-.28-.312-.408a1.663 1.663 0 00-.336-.336 29.685 29.685 0 00-.888-.768c-.4-.336-.856-.712-1.368-1.128a40.001 40.001 0 00-1.656-1.32 31.936 31.936 0 00-1.728-1.224c-.128.112-.24.2-.336.264-.096.064-.184.12-.264.168l-.24.144c-.08.048-.168.104-.264.168-.096.08-.24.272-.432.576-.192.288-.416.656-.672 1.104-.24.432-.504.904-.792 1.416a42.439 42.439 0 01-.864 1.512zm12.445-3.216c.048-.432.224-.968.528-1.608a25.5 25.5 0 011.128-2.088 40.01 40.01 0 011.56-2.376c.592-.832 1.192-1.656 1.8-2.472a79.129 79.129 0 011.848-2.328c.624-.752 1.2-1.416 1.728-1.992a42.235 42.235 0 011.416-1.44c.416-.384.728-.608.936-.672.128-.064.352.024.672.264.336.24.728.528 1.176.864.448.32.92.64 1.416.96.512.32 1 .544 1.464.672-.272.72-.52 1.384-.744 1.992-.208.608-.4 1.216-.576 1.824-.16.608-.328 1.224-.504 1.848-.16.624-.32 1.304-.48 2.04a30.35 30.35 0 00-.432 1.992c-.096.624-.192 1.24-.288 1.848-.08.608-.168 1.232-.264 1.872-.08.624-.176 1.296-.288 2.016a2.208 2.208 0 01-.816-.24 2.725 2.725 0 01-.648-.48 3.772 3.772 0 01-.528-.672c-.144-.256-.288-.52-.432-.792a1.54 1.54 0 01-.192-.6 3.462 3.462 0 010-.576c.032-.192.064-.392.096-.6a1.78 1.78 0 00-.024-.648l-2.448.264c-.32.048-.64.088-.96.12-.304.032-.592.064-.864.096s-.512.064-.72.096a2.88 2.88 0 01-.408.048c-.24.192-.512.512-.816.96-.304.432-.592.88-.864 1.344a26.76 26.76 0 00-.984 1.8 9.038 9.038 0 01-.624-.744 4.44 4.44 0 01-.528-.816 3.337 3.337 0 01-.312-.84 2.621 2.621 0 01-.024-.936zm11.64-10.848a819.16 819.16 0 00-2.064 2.496 35.93 35.93 0 00-.888 1.08c-.288.368-.584.744-.888 1.128-.288.384-.568.752-.84 1.104-.256.352-.488.688-.696 1.008.368-.064.76-.12 1.176-.168.432-.048.832-.096 1.2-.144.416-.048.84-.104 1.272-.168l1.728-6.336z" fill="#FF8D23"/></g><defs><linearGradient id="paint0_linear" x1="-66.418" y1="66.803" x2="113.618" y2="38.032" gradientUnits="userSpaceOnUse"><stop stop-color="#2EC847"/><stop offset=".188" stop-color="#2D712C"/><stop offset=".599" stop-color="#16B91D"/><stop offset=".922" stop-color="#2F8938"/><stop offset="1" stop-color="#35CD44"/></linearGradient><linearGradient id="paint1_linear" x1="-66.418" y1="66.803" x2="113.618" y2="38.032" gradientUnits="userSpaceOnUse"><stop stop-color="#2EC847"/><stop offset=".188" stop-color="#2D712C"/><stop offset=".599" stop-color="#16B91D"/><stop offset=".922" stop-color="#2F8938"/><stop offset="1" stop-color="#35CD44"/></linearGradient><linearGradient id="paint2_linear" x1="-66.418" y1="66.803" x2="113.618" y2="38.032" gradientUnits="userSpaceOnUse"><stop stop-color="#2EC847"/><stop offset=".188" stop-color="#2D712C"/><stop offset=".599" stop-color="#16B91D"/><stop offset=".922" stop-color="#2F8938"/><stop offset="1" stop-color="#35CD44"/></linearGradient><linearGradient id="paint3_linear" x1="-66.418" y1="66.803" x2="113.618" y2="38.032" gradientUnits="userSpaceOnUse"><stop stop-color="#2EC847"/><stop offset=".188" stop-color="#2D712C"/><stop offset=".599" stop-color="#16B91D"/><stop offset=".922" stop-color="#2F8938"/><stop offset="1" stop-color="#35CD44"/></linearGradient><linearGradient id="paint4_linear" x1="-66.418" y1="66.803" x2="113.618" y2="38.032" gradientUnits="userSpaceOnUse"><stop stop-color="#2EC847"/><stop offset=".188" stop-color="#2D712C"/><stop offset=".599" stop-color="#16B91D"/><stop offset=".922" stop-color="#2F8938"/><stop offset="1" stop-color="#35CD44"/></linearGradient><linearGradient id="paint5_linear" x1="-66.418" y1="66.803" x2="113.618" y2="38.032" gradientUnits="userSpaceOnUse"><stop stop-color="#2EC847"/><stop offset=".188" stop-color="#2D712C"/><stop offset=".599" stop-color="#16B91D"/><stop offset=".922" stop-color="#2F8938"/><stop offset="1" stop-color="#35CD44"/></linearGradient><linearGradient id="paint6_linear" x1="-66.418" y1="66.803" x2="113.618" y2="38.032" gradientUnits="userSpaceOnUse"><stop stop-color="#2EC847"/><stop offset=".188" stop-color="#2D712C"/><stop offset=".599" stop-color="#16B91D"/><stop offset=".922" stop-color="#2F8938"/><stop offset="1" stop-color="#35CD44"/></linearGradient><linearGradient id="paint7_linear" x1="-66.418" y1="66.803" x2="113.618" y2="38.032" gradientUnits="userSpaceOnUse"><stop stop-color="#2EC847"/><stop offset=".188" stop-color="#2D712C"/><stop offset=".599" stop-color="#16B91D"/><stop offset=".922" stop-color="#2F8938"/><stop offset="1" stop-color="#35CD44"/></linearGradient><linearGradient id="paint8_linear" x1="-66.418" y1="66.803" x2="113.618" y2="38.032" gradientUnits="userSpaceOnUse"><stop stop-color="#2EC847"/><stop offset=".188" stop-color="#2D712C"/><stop offset=".599" stop-color="#16B91D"/><stop offset=".922" stop-color="#2F8938"/><stop offset="1" stop-color="#35CD44"/></linearGradient><linearGradient id="paint9_linear" x1="-66.418" y1="66.803" x2="113.618" y2="38.032" gradientUnits="userSpaceOnUse"><stop stop-color="#2EC847"/><stop offset=".188" stop-color="#2D712C"/><stop offset=".599" stop-color="#16B91D"/><stop offset=".922" stop-color="#2F8938"/><stop offset="1" stop-color="#35CD44"/></linearGradient><linearGradient id="paint10_linear" x1="-66.418" y1="66.803" x2="113.618" y2="38.032" gradientUnits="userSpaceOnUse"><stop stop-color="#2EC847"/><stop offset=".188" stop-color="#2D712C"/><stop offset=".599" stop-color="#16B91D"/><stop offset=".922" stop-color="#2F8938"/><stop offset="1" stop-color="#35CD44"/></linearGradient><linearGradient id="paint11_linear" x1="-66.418" y1="66.803" x2="113.618" y2="38.032" gradientUnits="userSpaceOnUse"><stop stop-color="#2EC847"/><stop offset=".188" stop-color="#2D712C"/><stop offset=".599" stop-color="#16B91D"/><stop offset=".922" stop-color="#2F8938"/><stop offset="1" stop-color="#35CD44"/></linearGradient><linearGradient id="paint12_linear" x1="-66.418" y1="66.803" x2="113.618" y2="38.032" gradientUnits="userSpaceOnUse"><stop stop-color="#2EC847"/><stop offset=".188" stop-color="#2D712C"/><stop offset=".599" stop-color="#16B91D"/><stop offset=".922" stop-color="#2F8938"/><stop offset="1" stop-color="#35CD44"/></linearGradient><linearGradient id="paint13_linear" x1="-66.418" y1="66.803" x2="113.618" y2="38.032" gradientUnits="userSpaceOnUse"><stop stop-color="#2EC847"/><stop offset=".188" stop-color="#2D712C"/><stop offset=".599" stop-color="#16B91D"/><stop offset=".922" stop-color="#2F8938"/><stop offset="1" stop-color="#35CD44"/></linearGradient><linearGradient id="paint14_linear" x1="-66.418" y1="66.803" x2="113.618" y2="38.032" gradientUnits="userSpaceOnUse"><stop stop-color="#2EC847"/><stop offset=".188" stop-color="#2D712C"/><stop offset=".599" stop-color="#16B91D"/><stop offset=".922" stop-color="#2F8938"/><stop offset="1" stop-color="#35CD44"/></linearGradient><linearGradient id="paint15_linear" x1="-66.418" y1="66.803" x2="113.618" y2="38.032" gradientUnits="userSpaceOnUse"><stop stop-color="#2EC847"/><stop offset=".188" stop-color="#2D712C"/><stop offset=".599" stop-color="#16B91D"/><stop offset=".922" stop-color="#2F8938"/><stop offset="1" stop-color="#35CD44"/></linearGradient><linearGradient id="paint16_linear" x1="-66.418" y1="66.803" x2="113.618" y2="38.032" gradientUnits="userSpaceOnUse"><stop stop-color="#2EC847"/><stop offset=".188" stop-color="#2D712C"/><stop offset=".599" stop-color="#16B91D"/><stop offset=".922" stop-color="#2F8938"/><stop offset="1" stop-color="#35CD44"/></linearGradient><linearGradient id="paint17_linear" x1="-66.418" y1="66.803" x2="113.618" y2="38.032" gradientUnits="userSpaceOnUse"><stop stop-color="#2EC847"/><stop offset=".188" stop-color="#2D712C"/><stop offset=".599" stop-color="#16B91D"/><stop offset=".922" stop-color="#2F8938"/><stop offset="1" stop-color="#35CD44"/></linearGradient><linearGradient id="paint18_linear" x1="-66.418" y1="66.803" x2="113.618" y2="38.032" gradientUnits="userSpaceOnUse"><stop stop-color="#2EC847"/><stop offset=".188" stop-color="#2D712C"/><stop offset=".599" stop-color="#16B91D"/><stop offset=".922" stop-color="#2F8938"/><stop offset="1" stop-color="#35CD44"/></linearGradient><linearGradient id="paint19_linear" x1="-66.418" y1="66.803" x2="113.618" y2="38.032" gradientUnits="userSpaceOnUse"><stop stop-color="#2EC847"/><stop offset=".188" stop-color="#2D712C"/><stop offset=".599" stop-color="#16B91D"/><stop offset=".922" stop-color="#2F8938"/><stop offset="1" stop-color="#35CD44"/></linearGradient><linearGradient id="paint20_linear" x1="-66.418" y1="66.803" x2="113.618" y2="38.032" gradientUnits="userSpaceOnUse"><stop stop-color="#2EC847"/><stop offset=".188" stop-color="#2D712C"/><stop offset=".599" stop-color="#16B91D"/><stop offset=".922" stop-color="#2F8938"/><stop offset="1" stop-color="#35CD44"/></linearGradient><linearGradient id="paint21_linear" x1="-66.418" y1="66.803" x2="113.618" y2="38.032" gradientUnits="userSpaceOnUse"><stop stop-color="#2EC847"/><stop offset=".188" stop-color="#2D712C"/><stop offset=".599" stop-color="#16B91D"/><stop offset=".922" stop-color="#2F8938"/><stop offset="1" stop-color="#35CD44"/></linearGradient><linearGradient id="paint22_linear" x1="-66.418" y1="66.803" x2="113.618" y2="38.032" gradientUnits="userSpaceOnUse"><stop stop-color="#2EC847"/><stop offset=".188" stop-color="#2D712C"/><stop offset=".599" stop-color="#16B91D"/><stop offset=".922" stop-color="#2F8938"/><stop offset="1" stop-color="#35CD44"/></linearGradient><linearGradient id="paint23_linear" x1="-66.418" y1="66.803" x2="113.618" y2="38.032" gradientUnits="userSpaceOnUse"><stop stop-color="#2EC847"/><stop offset=".188" stop-color="#2D712C"/><stop offset=".599" stop-color="#16B91D"/><stop offset=".922" stop-color="#2F8938"/><stop offset="1" stop-color="#35CD44"/></linearGradient><linearGradient id="paint24_linear" x1="-66.418" y1="66.803" x2="113.618" y2="38.032" gradientUnits="userSpaceOnUse"><stop stop-color="#2EC847"/><stop offset=".188" stop-color="#2D712C"/><stop offset=".599" stop-color="#16B91D"/><stop offset=".922" stop-color="#2F8938"/><stop offset="1" stop-color="#35CD44"/></linearGradient><linearGradient id="paint25_linear" x1="-66.418" y1="66.803" x2="113.618" y2="38.032" gradientUnits="userSpaceOnUse"><stop stop-color="#2EC847"/><stop offset=".188" stop-color="#2D712C"/><stop offset=".599" stop-color="#16B91D"/><stop offset=".922" stop-color="#2F8938"/><stop offset="1" stop-color="#35CD44"/></linearGradient><linearGradient id="paint26_linear" x1="-66.418" y1="66.803" x2="113.618" y2="38.032" gradientUnits="userSpaceOnUse"><stop stop-color="#2EC847"/><stop offset=".188" stop-color="#2D712C"/><stop offset=".599" stop-color="#16B91D"/><stop offset=".922" stop-color="#2F8938"/><stop offset="1" stop-color="#35CD44"/></linearGradient><linearGradient id="paint27_linear" x1="-66.418" y1="66.803" x2="113.618" y2="38.032" gradientUnits="userSpaceOnUse"><stop stop-color="#2EC847"/><stop offset=".188" stop-color="#2D712C"/><stop offset=".599" stop-color="#16B91D"/><stop offset=".922" stop-color="#2F8938"/><stop offset="1" stop-color="#35CD44"/></linearGradient><linearGradient id="paint28_linear" x1="-66.418" y1="66.803" x2="113.618" y2="38.032" gradientUnits="userSpaceOnUse"><stop stop-color="#2EC847"/><stop offset=".188" stop-color="#2D712C"/><stop offset=".599" stop-color="#16B91D"/><stop offset=".922" stop-color="#2F8938"/><stop offset="1" stop-color="#35CD44"/></linearGradient><linearGradient id="paint29_linear" x1="-66.418" y1="66.803" x2="113.618" y2="38.032" gradientUnits="userSpaceOnUse"><stop stop-color="#2EC847"/><stop offset=".188" stop-color="#2D712C"/><stop offset=".599" stop-color="#16B91D"/><stop offset=".922" stop-color="#2F8938"/><stop offset="1" stop-color="#35CD44"/></linearGradient><linearGradient id="paint30_linear" x1="-66.418" y1="66.803" x2="113.618" y2="38.032" gradientUnits="userSpaceOnUse"><stop stop-color="#2EC847"/><stop offset=".188" stop-color="#2D712C"/><stop offset=".599" stop-color="#16B91D"/><stop offset=".922" stop-color="#2F8938"/><stop offset="1" stop-color="#35CD44"/></linearGradient><linearGradient id="paint31_linear" x1="-66.418" y1="66.803" x2="113.618" y2="38.032" gradientUnits="userSpaceOnUse"><stop stop-color="#2EC847"/><stop offset=".188" stop-color="#2D712C"/><stop offset=".599" stop-color="#16B91D"/><stop offset=".922" stop-color="#2F8938"/><stop offset="1" stop-color="#35CD44"/></linearGradient><linearGradient id="paint32_linear" x1="-66.418" y1="66.803" x2="113.618" y2="38.032" gradientUnits="userSpaceOnUse"><stop stop-color="#2EC847"/><stop offset=".188" stop-color="#2D712C"/><stop offset=".599" stop-color="#16B91D"/><stop offset=".922" stop-color="#2F8938"/><stop offset="1" stop-color="#35CD44"/></linearGradient><clipPath id="clip0"><path fill="#fff" d="M0 0h163v75H0z"/></clipPath></defs></svg>