<svg width="183" height="84" fill="none" xmlns="http://www.w3.org/2000/svg"><g clip-path="url(#clip0)"><path d="M102.96 31.678a19.907 19.907 0 10-4.278 4.282h-.003c.091.122.19.238.3.352l11.79 11.79a3.066 3.066 0 004.332.002 3.06 3.06 0 00.002-4.332l-11.791-11.79a3.047 3.047 0 00-.352-.307v.003zm.79-11.772a16.853 16.853 0 01-4.933 11.91 16.84 16.84 0 01-23.821 0 16.845 16.845 0 0123.82-23.82 16.845 16.845 0 014.934 11.91z" fill="#fff"/></g><path d="M5.968 71.872c.81 0 1.525.176 2.144.528a3.598 3.598 0 011.44 1.44c.352.619.528 1.328.528 2.128 0 .821-.192 1.552-.576 2.192a3.93 3.93 0 01-1.616 1.472c-.693.352-1.483.528-2.368.528-1.483 0-2.63-.49-3.44-1.472-.81-.981-1.216-2.395-1.216-4.24 0-1.717.368-3.077 1.104-4.08.736-1.003 1.861-1.664 3.376-1.984l3.968-.848.288 1.792-3.6.736c-1.035.213-1.808.576-2.32 1.088-.512.512-.81 1.232-.896 2.16a3.87 3.87 0 011.392-1.056 4.155 4.155 0 011.792-.384zm-.4 6.672c.736 0 1.328-.235 1.776-.704.459-.48.688-1.088.688-1.824s-.23-1.328-.688-1.776c-.448-.448-1.04-.672-1.776-.672-.747 0-1.35.224-1.808.672-.459.448-.688 1.04-.688 1.776 0 .747.23 1.355.688 1.824.47.47 1.072.704 1.808.704zm11.728-4.272c1.088 0 1.92.245 2.496.736.576.49.864 1.184.864 2.08 0 .939-.32 1.664-.96 2.176-.63.512-1.526.763-2.688.752L13.136 80v-8.544h2v2.8l2.16.016zm4.464-2.816h2V80h-2v-8.544zm-4.928 7.088c.587.01 1.034-.112 1.344-.368.31-.256.464-.63.464-1.12 0-.48-.15-.832-.448-1.056-.299-.224-.752-.341-1.36-.352l-1.696-.016v2.896l1.696.016zm14.624 1.568c-.885 0-1.68-.187-2.384-.56A4.129 4.129 0 0127.424 78c-.394-.672-.592-1.43-.592-2.272 0-.843.198-1.595.592-2.256a4.155 4.155 0 011.632-1.552c.704-.373 1.504-.56 2.4-.56.843 0 1.579.17 2.208.512a3.31 3.31 0 011.44 1.472l-1.536.896a2.361 2.361 0 00-.928-.88 2.418 2.418 0 00-1.2-.304c-.746 0-1.365.245-1.856.736-.49.48-.736 1.125-.736 1.936 0 .81.24 1.461.72 1.952.491.48 1.115.72 1.872.72a2.52 2.52 0 001.2-.288c.374-.203.683-.501.928-.896l1.536.896a3.499 3.499 0 01-1.456 1.488c-.629.341-1.36.512-2.192.512zm13.22-6.96h-2.993V80h-2v-6.848h-3.008v-1.696h8v1.696zm7.306-1.792c.832 0 1.573.181 2.224.544a3.91 3.91 0 011.552 1.536c.373.661.56 1.424.56 2.288 0 .864-.187 1.632-.56 2.304a3.91 3.91 0 01-1.552 1.536c-.65.363-1.392.544-2.224.544-1.152 0-2.064-.384-2.736-1.152v4.144h-2V71.456h1.904v1.12c.33-.405.736-.71 1.216-.912a4.192 4.192 0 011.616-.304zm-.224 7.04c.736 0 1.338-.245 1.808-.736.48-.49.72-1.136.72-1.936s-.24-1.445-.72-1.936c-.47-.49-1.072-.736-1.808-.736-.48 0-.912.112-1.296.336a2.315 2.315 0 00-.912.928c-.224.405-.336.875-.336 1.408 0 .533.112 1.003.336 1.408.224.405.528.72.912.944.384.213.816.32 1.296.32zm11.83-4.128c1.088 0 1.92.245 2.496.736.576.49.864 1.184.864 2.08 0 .939-.32 1.664-.96 2.176-.629.512-1.525.763-2.688.752L59.428 80v-8.544h2v2.8l2.16.016zm4.464-2.816h2V80h-2v-8.544zm-4.928 7.088c.587.01 1.035-.112 1.344-.368.31-.256.464-.63.464-1.12 0-.48-.149-.832-.448-1.056-.298-.224-.752-.341-1.36-.352l-1.696-.016v2.896l1.696.016zm10.737-7.088h2v5.632l4.72-5.632h1.824V80h-2v-5.632L75.7 80h-1.84v-8.544zm4.144-1.008c-.864 0-1.525-.197-1.984-.592-.448-.405-.677-.992-.688-1.76h1.328c.01.384.128.688.352.912.234.224.56.336.976.336.405 0 .725-.112.96-.336.245-.224.373-.528.384-.912h1.36c-.01.768-.245 1.355-.704 1.76-.459.395-1.12.592-1.984.592zm21.944 1.008V80h-1.984v-6.848h-4.208V80h-2v-8.544h8.192zm8.555-.096c.832 0 1.573.181 2.224.544a3.916 3.916 0 011.552 1.536c.373.661.56 1.424.56 2.288 0 .864-.187 1.632-.56 2.304a3.916 3.916 0 01-1.552 1.536c-.651.363-1.392.544-2.224.544-1.152 0-2.064-.384-2.736-1.152v4.144h-2V71.456h1.904v1.12c.33-.405.736-.71 1.216-.912a4.189 4.189 0 011.616-.304zm-.224 7.04c.736 0 1.338-.245 1.808-.736.48-.49.72-1.136.72-1.936s-.24-1.445-.72-1.936c-.47-.49-1.072-.736-1.808-.736-.48 0-.912.112-1.296.336a2.315 2.315 0 00-.912.928c-.224.405-.336.875-.336 1.408 0 .533.112 1.003.336 1.408.224.405.528.72.912.944.384.213.816.32 1.296.32zm11.478 1.712c-.864 0-1.642-.187-2.336-.56A4.16 4.16 0 01115.79 78c-.384-.672-.576-1.43-.576-2.272 0-.843.192-1.595.576-2.256a4.16 4.16 0 011.632-1.552c.694-.373 1.472-.56 2.336-.56.875 0 1.659.187 2.352.56a4.04 4.04 0 011.616 1.552c.395.661.592 1.413.592 2.256 0 .843-.197 1.6-.592 2.272a4.04 4.04 0 01-1.616 1.552c-.693.373-1.477.56-2.352.56zm0-1.712c.736 0 1.344-.245 1.824-.736.48-.49.72-1.136.72-1.936s-.24-1.445-.72-1.936c-.48-.49-1.088-.736-1.824-.736s-1.344.245-1.824.736c-.469.49-.704 1.136-.704 1.936s.235 1.445.704 1.936c.48.49 1.088.736 1.824.736zm11.544 1.712c-.885 0-1.68-.187-2.384-.56A4.131 4.131 0 01127.27 78c-.395-.672-.592-1.43-.592-2.272 0-.843.197-1.595.592-2.256a4.16 4.16 0 011.632-1.552c.704-.373 1.504-.56 2.4-.56.843 0 1.579.17 2.208.512a3.31 3.31 0 011.44 1.472l-1.536.896a2.36 2.36 0 00-.928-.88 2.42 2.42 0 00-1.2-.304c-.747 0-1.365.245-1.856.736-.491.48-.736 1.125-.736 1.936 0 .81.24 1.461.72 1.952.491.48 1.115.72 1.872.72.437 0 .837-.096 1.2-.288.373-.203.683-.501.928-.896l1.536.896a3.5 3.5 0 01-1.456 1.488c-.629.341-1.36.512-2.192.512zM146.231 80v-5.664l-2.88 4.768h-.864l-2.832-4.784V80h-1.824v-8.544h2.096l3.04 5.344 3.184-5.344h1.872l.016 8.544h-1.808zm9.418.112c-.864 0-1.642-.187-2.336-.56A4.16 4.16 0 01151.681 78c-.384-.672-.576-1.43-.576-2.272 0-.843.192-1.595.576-2.256a4.16 4.16 0 011.632-1.552c.694-.373 1.472-.56 2.336-.56.875 0 1.659.187 2.352.56a4.04 4.04 0 011.616 1.552c.395.661.592 1.413.592 2.256 0 .843-.197 1.6-.592 2.272a4.04 4.04 0 01-1.616 1.552c-.693.373-1.477.56-2.352.56zm0-1.712c.736 0 1.344-.245 1.824-.736.48-.49.72-1.136.72-1.936s-.24-1.445-.72-1.936c-.48-.49-1.088-.736-1.824-.736s-1.344.245-1.824.736c-.469.49-.704 1.136-.704 1.936s.235 1.445.704 1.936c.48.49 1.088.736 1.824.736zm14.112-5.248h-2.992V80h-2v-6.848h-3.008v-1.696h8v1.696zm7.307-1.792c.832 0 1.573.181 2.224.544a3.916 3.916 0 011.552 1.536c.373.661.56 1.424.56 2.288 0 .864-.187 1.632-.56 2.304a3.916 3.916 0 01-1.552 1.536c-.651.363-1.392.544-2.224.544-1.152 0-2.064-.384-2.736-1.152v4.144h-2V71.456h1.904v1.12c.33-.405.736-.71 1.216-.912a4.189 4.189 0 011.616-.304zm-.224 7.04c.736 0 1.338-.245 1.808-.736.48-.49.72-1.136.72-1.936s-.24-1.445-.72-1.936c-.47-.49-1.072-.736-1.808-.736-.48 0-.912.112-1.296.336a2.315 2.315 0 00-.912.928c-.224.405-.336.875-.336 1.408 0 .533.112 1.003.336 1.408.224.405.528.72.912.944.384.213.816.32 1.296.32z" fill="#fff"/><defs><clipPath id="clip0"><path fill="#fff" transform="translate(67)" d="M0 0h49v49H0z"/></clipPath></defs></svg>