<svg width="20" height="20" fill="none" xmlns="http://www.w3.org/2000/svg"><circle cx="10" cy="10" r="10" fill="#FF8D23"/><path d="M11.888 8.075l-3.664.378-.131.502.72.11c.47.092.563.232.46.618l-1.18 4.576C7.783 15.443 8.26 16 9.386 16c.872 0 1.884-.332 2.344-.79l.14-.548c-.32.232-.787.325-1.097.325-.44 0-.6-.255-.487-.704l1.602-6.208zM12 5.32c0 .35-.169.685-.469.933-.3.247-.707.386-1.131.386-.424 0-.831-.139-1.131-.386-.3-.248-.47-.583-.47-.933 0-.35.17-.686.47-.934C9.569 4.14 9.976 4 10.4 4c.424 0 .831.139 1.131.386.3.248.469.584.469.934z" fill="#fff"/></svg>